# xmcd CD database file
#
# Track frame offsets:
#	150
#	15875
#	32125
#	43729
#	61708
#	74448
#	84707
#	97613
#	116531
#	123800
#	140065
#	156266
#	171242
#	184581
#	195193
#	204549
#
# Disc length: 3339 seconds
#
# Revision: 0
# Processed by: cddbd v1.4PL0 Copyright (c) Steve Scherf et al.
# Submitted via: Feurio! 1.65 - http://www.feurio.com
#
DISCID=cb0d0910
DTITLE=Nice Price - Acoustic Band - One Day
DYEAR=2002
DGENRE=Country
TTITLE0=Once upon a time
TTITLE1=Viola flowershop song
TTITLE2=Tilou Tilou Polka
TTITLE3=Don't think twice
TTITLE4=San Francisco bay blues
TTITLE5=Kiss the Quakers wife
TTITLE6=One day
TTITLE7=Do you love an apple
TTITLE8=Drops of Brandy
TTITLE9=Dead and gone
TTITLE10=Desert song
TTITLE11=Whiskey in the jar
TTITLE12=Varg timmen
TTITLE13=Menuett für Greti
TTITLE14=Oxford town
TTITLE15=Goodbye-Song
EXTD=
EXTT0=
EXTT1=
EXTT2=
EXTT3=
EXTT4=
EXTT5=
EXTT6=
EXTT7=
EXTT8=
EXTT9=
EXTT10=
EXTT11=
EXTT12=
EXTT13=
EXTT14=
EXTT15=
PLAYORDER=
